<svg xmlns="http://www.w3.org/2000/svg" viewBox="0 0 89.27 38.41"><title>logo_black</title><g id="레이어_2" data-name="레이어 2"><g id="레이어_3" data-name="레이어 3"><path d="M35.3,22.48l-5.9,6.11,6.42,6.17H34.61L28.2,28.59l0,6.14h-.95l.05-12.28h.95l0,6.11,5.92-6.09Z"/><path d="M37.82,22.49l0,12.28h-1l0-12.28Z"/><path d="M46.21,28.23l4.69-5.69h1l0,12.27h-1l0-10.89-4.7,5.72-4.66-5.76,0,10.89h-.94L40.6,22.5h.95Z"/><path d="M55.69,22.56l0,12.28a4,4,0,0,1-.78,2.8,2.49,2.49,0,0,1-1.81.77c-.17,0-.36,0-.57,0l-.09-.9a2.32,2.32,0,0,0,.56.07c1.15,0,1.73-.81,1.74-2.45l.05-12.53Z"/><path d="M67.48,22.61h1l0,6.7A5.84,5.84,0,0,1,67,33.55,4.89,4.89,0,0,1,63.24,35a5,5,0,0,1-3.7-1.49,5.56,5.56,0,0,1-1.41-4.05l0-6.92h1l0,6.88a4.78,4.78,0,0,0,1.15,3.44,4.27,4.27,0,0,0,6,0,5,5,0,0,0,1.18-3.55Z"/><path d="M75.31,22.55l5.62,12.39h-1L78,30.69l-6,0-2,4.24h-1l5.72-12.35Zm2.34,7.34L75,24.1l-2.66,5.77Z"/><path d="M89.18,22.7v.79l-5.75,0,0,4.91,5.6,0v.8l-5.59,0,0,5,5.88,0V35l-6.84,0,0-12.28Z"/><rect x="-0.41" y="10.5" width="89.82" height="1" transform="translate(-1.3 9.13) rotate(-11.55)"/><circle cx="3" cy="3" r="3"/></g></g></svg>